<svg width="64" height="64" viewBox="0 0 64 64" fill="none" xmlns="http://www.w3.org/2000/svg">
<g clip-path="url(#clip0_946_17483)">
<rect width="64" height="64" rx="32" fill="#FFF2EB"/>
<path d="M29.3717 38.4057C30.1935 38.0366 31.0754 37.9489 31.9556 37.8851C34.6409 37.6906 37.3257 37.4754 40.0145 37.347C41.7373 37.2647 43.4667 37.3213 45.2403 37.3333C45.805 37.4209 46.3248 37.4771 46.8392 37.565C47.354 37.653 47.8635 37.7727 48.3888 37.8957C48.8516 38.0674 49.3009 38.2218 49.7638 38.3939C50.1259 38.5478 50.4744 38.6838 50.7821 38.804C50.7709 38.4452 50.764 38.1166 50.7488 37.7884C50.7407 37.6136 50.7075 37.4398 50.7038 37.2652C50.6943 36.8203 50.695 36.3753 50.7205 35.9287C51.4793 36.0098 52.2169 36.0521 52.9373 36.1865C53.678 36.3247 54.402 36.5529 55.1333 36.7417C55.2452 37.2666 55.4002 37.7867 55.4601 38.3175C55.5934 39.4972 55.4943 40.6624 55.0889 41.7892C54.5053 43.4117 53.2867 44.2794 51.6461 44.5477C50.5633 44.7247 49.459 44.7723 48.3633 44.865C48.0326 44.893 47.6982 44.8778 47.316 44.879C46.4685 44.8492 45.6706 44.8227 44.8655 44.7729C44.421 44.7083 43.9837 44.6663 43.5464 44.6256C42.6203 44.5393 41.6919 44.473 40.7688 44.3626C39.7648 44.2426 38.7662 44.0773 37.7642 43.9399C36.6392 43.7856 35.5111 43.6528 34.3879 43.4872C33.4689 43.3516 32.5517 43.3528 31.6317 43.4436C31.5857 43.4482 31.5456 43.5119 31.478 43.5562C30.8449 43.6976 30.2311 43.8098 29.6294 43.9681C28.1882 44.3472 26.7311 44.625 25.2399 44.6791C22.8709 44.7652 20.5338 44.4426 18.2008 44.0896C17.2777 43.95 16.3582 43.7867 15.437 43.6342C15.1203 43.5745 14.8036 43.5149 14.4623 43.4201C14.1416 42.1888 14.1455 41.015 14.7179 39.8717C14.8199 39.8412 14.9033 39.8214 15.0036 39.8208C15.0391 39.8492 15.057 39.8648 15.0762 39.8666C15.8176 39.9324 16.5581 40.0281 17.301 40.0525C17.9842 40.075 18.67 40.0229 19.3546 39.9994C19.8727 39.9816 20.3912 39.9659 20.9085 39.933C21.3831 39.9027 21.8572 39.8593 22.3297 39.8065C23.3871 39.6882 24.4449 39.5715 25.4997 39.433C26.3186 39.3256 27.1453 39.236 27.9454 39.0429C28.4431 38.9227 28.8978 38.6242 29.3717 38.4057Z" fill="#A17462"/>
<path d="M14.6989 39.882C14.1451 41.0147 14.1412 42.1885 14.4393 43.4098C13.6321 43.3531 12.8796 43.5275 12.1485 43.8812C11.6731 44.1112 11.1681 44.2685 10.6198 44.2645C10.0435 44.2603 9.61042 43.997 9.39207 43.5066C9.14951 42.9619 8.98451 42.3752 8.84908 41.792C8.64789 40.9258 8.25219 40.1817 7.63976 39.5428C7.00778 38.8835 6.73203 38.0636 6.62801 37.1799C6.59219 36.8756 6.58404 36.5571 6.63249 36.2563C6.70154 35.8275 6.91591 35.6701 7.40584 35.6221C7.70171 35.7834 7.97435 35.9146 8.18755 36.1106C8.5285 36.4239 8.80211 36.8128 9.15317 37.1124C10.4589 38.2266 11.8901 39.127 13.5707 39.5744C13.9473 39.6746 14.3228 39.7793 14.6989 39.882Z" fill="#FBBB93"/>
<path d="M55.1322 36.7154C54.4016 36.553 53.6777 36.3248 52.9369 36.1866C52.2165 36.0521 51.479 36.0099 50.698 35.9157C50.2014 35.8997 49.7558 35.8952 49.2815 35.8866C48.8555 35.9052 48.4583 35.9278 48.0458 35.9457C48.0204 35.9379 48.0102 35.9346 48.0005 35.9077C48.0549 35.8195 48.0982 35.7397 48.1648 35.6931C48.39 35.5355 48.6428 35.4122 48.8498 35.2347C49.3544 34.802 49.8391 34.3461 50.3327 33.9006C50.3552 33.8803 50.3927 33.8763 50.4139 33.8553C50.5851 33.6855 50.7827 33.5331 50.9172 33.3375C51.1231 33.038 51.2984 32.7431 51.6522 32.5639C51.9865 32.3945 52.2614 32.1114 52.576 31.8982C52.855 31.7091 53.1526 31.5474 53.442 31.3735C53.6969 31.9485 53.9519 32.5235 54.2227 33.1127C54.4376 33.8095 54.6535 34.4878 54.83 35.1761C54.9575 35.6734 55.0328 36.1842 55.1322 36.7154Z" fill="#FBBA95"/>
<path d="M14.7179 39.8716C14.3232 39.7796 13.9477 39.6749 13.571 39.5746C11.8905 39.1273 10.4592 38.2268 9.15355 37.1126C8.80249 36.8131 8.52888 36.4241 8.18793 36.1108C7.97473 35.9149 7.70209 35.7836 7.42969 35.6222C7.5171 34.8892 8.03044 34.5536 8.58321 34.8773C8.75996 34.9808 8.90306 35.1723 9.01383 35.3528C9.55812 36.2397 10.2412 36.9971 11.0883 37.6304C12.2833 38.5645 13.6024 39.1667 15.109 39.416C15.0811 39.5639 15.0339 39.6827 14.9866 39.8015C14.9032 39.8213 14.8199 39.8412 14.7179 39.8716Z" fill="#ECA178"/>
<path d="M14.5665 36.4949C14.3465 36.4941 14.1135 36.5683 13.934 36.3544C13.9059 36.3209 13.803 36.3489 13.7348 36.3507C13.4684 36.3577 13.202 36.3749 12.9358 36.3707C12.6412 36.366 12.4789 36.1818 12.3989 35.8995C13.2368 35.5416 14.0588 35.1969 14.8887 34.8722C15.3593 34.688 15.8316 34.4749 16.3231 34.3866C16.9201 34.2793 17.5387 34.2949 18.1472 34.2474C18.4658 34.2226 18.8003 34.2296 19.0977 34.1314C20.5744 33.6441 22.0465 33.1416 23.5099 32.6158C25.3611 31.9508 27.1488 31.1155 29.0882 30.688C29.8994 30.5092 30.6792 30.1589 31.4502 29.8321C33.5938 28.9236 35.5807 27.7715 37.2862 26.1494C37.7694 25.6897 38.4294 25.4158 39.0209 25.0506C39.0482 25.0321 39.0588 25.0169 39.0637 24.9989C39.0622 24.999 39.0621 25.0021 39.0848 24.9993C40.2412 24.4574 41.4114 24.1178 42.6872 24.3083C43.7339 24.4647 44.6114 24.9164 45.2046 25.8078C46.2594 27.3927 45.5883 29.3418 43.7882 29.9524C42.9015 30.2531 42.0089 30.1717 41.1213 29.9317C40.9732 29.8916 40.7912 29.7939 40.6775 29.8435C40.2919 30.0117 39.9299 30.2339 39.5589 30.4355C39.2997 30.5371 39.0409 30.6398 38.7812 30.7402C36.728 31.5337 34.6742 32.3255 32.6216 33.1205C31.7025 33.4765 30.7979 33.8745 29.8651 34.1894C28.4965 34.6513 27.0847 34.9546 25.6501 35.126C24.1069 35.3104 22.5581 35.4489 21.0159 35.6406C20.6566 35.6853 20.2974 35.8296 19.967 35.988C19.1982 36.3565 18.3945 36.4248 17.5661 36.3434C17.1438 36.302 16.7236 36.2397 16.2582 36.1682C15.6648 36.2647 15.1156 36.3798 14.5665 36.4949Z" fill="#FABB93"/>
<path d="M39.5684 30.4571C39.9302 30.2339 40.2921 30.0116 40.6777 29.8435C40.7915 29.7939 40.9735 29.8916 41.1216 29.9316C42.0091 30.1717 42.9017 30.253 43.7884 29.9523C45.5886 29.3418 46.2596 27.3926 45.2049 25.8077C44.6116 24.9163 43.7342 24.4646 42.6875 24.3083C41.4117 24.1177 40.2414 24.4574 39.085 24.9785C39.1025 24.8897 39.1429 24.8188 39.2015 24.7377C39.9542 23.9791 40.8816 23.6256 41.8858 23.437C42.3805 23.3441 42.8791 23.2713 43.3759 23.1895C44.4922 23.2789 45.5277 23.6445 46.5265 24.1256C48.9341 25.2852 50.805 27.0469 52.2484 29.2935C51.0696 30.3079 49.9109 31.2979 48.745 32.2791C47.8809 33.0063 47.0072 33.7221 46.1152 34.4334C45.8865 34.3601 45.6756 34.3085 45.4762 34.2282C45.3576 34.1805 45.2572 34.0877 45.0869 33.974C44.6188 34.3177 43.9885 34.4287 43.3324 34.4683C43.1156 34.4814 42.9032 34.5682 42.6888 34.6213C41.5512 34.3867 40.7654 33.7056 40.3261 32.6553C40.0306 31.949 39.8239 31.2056 39.5684 30.4571Z" fill="#A27563"/>
<path d="M30.2033 29.795C30.0816 29.7204 29.9615 29.6432 29.838 29.5717C28.8468 28.998 28.373 28.0943 28.235 26.9978C28.0179 25.2731 28.2818 23.6305 29.2183 22.1443C30.359 20.3342 33.2902 19.0334 35.9184 21.0423C36.7214 21.656 37.3484 22.4312 37.9832 23.2377C37.5917 24.227 36.8027 24.6217 35.852 24.8024C35.5873 24.0046 35.0015 23.5633 34.2291 23.3493C33.7808 23.225 33.3815 23.3778 33.181 23.7017C32.9702 24.0423 33.0152 24.5252 33.34 24.8518C33.5569 25.0699 33.8263 25.2372 34.079 25.4177C34.2501 25.5399 34.433 25.6455 34.6682 25.7951C33.9589 25.8458 33.5724 25.9847 33.2434 26.3721C32.4841 27.2662 31.6682 28.0794 30.495 28.4739C30.8068 28.8537 31.1346 29.1437 31.5706 29.3316C31.5944 29.3959 31.6203 29.4833 31.6146 29.4855C31.1591 29.6549 30.7225 29.9175 30.2033 29.795Z" fill="#313645"/>
<path d="M31.558 29.315C31.1347 29.1438 30.8069 28.8538 30.4951 28.4739C31.6683 28.0795 32.4842 27.2663 33.2435 26.3722C33.5725 25.9848 33.959 25.8459 34.6682 25.7952C34.4331 25.6456 34.2502 25.54 34.0791 25.4178C33.8264 25.2373 33.5569 25.07 33.34 24.8519C33.0152 24.5253 32.9703 24.0424 33.1811 23.7018C33.3816 23.3779 33.7809 23.2251 34.2292 23.3493C35.0016 23.5634 35.5873 24.0047 35.8521 24.8025C36.8028 24.6218 37.5917 24.227 37.9946 23.2549C39.0548 23.2997 40.0916 23.1883 41.1341 23.0958C41.8583 23.0316 42.5975 23.1377 43.3529 23.1787C42.879 23.2715 42.3805 23.3443 41.8858 23.4372C40.8816 23.6258 39.9542 23.9793 39.1744 24.7384C38.947 24.777 38.759 24.785 38.5838 24.8364C37.9148 25.0322 37.4066 25.4867 36.9102 25.941C36.1749 26.6141 35.4494 27.2986 34.5675 27.779C33.858 28.1654 33.1325 28.5226 32.4129 28.8903C32.1296 29.0351 31.8431 29.1736 31.558 29.315Z" fill="#F9BA92"/>
<path d="M46.1376 34.4428C47.007 33.722 47.8806 33.0062 48.7447 32.279C49.9107 31.2977 51.0693 30.3077 52.2534 29.3154C52.6622 29.9824 53.0487 30.6554 53.4387 31.3508C53.1527 31.5469 52.8551 31.7086 52.5761 31.8978C52.2615 32.1109 51.9867 32.3941 51.6523 32.5634C51.2985 32.7426 51.1232 33.0375 50.9173 33.3371C50.7829 33.5327 50.5852 33.685 50.414 33.8548C50.3928 33.8758 50.3553 33.8799 50.3329 33.9001C49.8392 34.3456 49.3546 34.8016 48.85 35.2342C48.643 35.4117 48.3901 35.535 48.1649 35.6927C48.0984 35.7393 48.055 35.819 47.9737 35.9124C47.2357 36.0675 46.525 36.1937 45.8144 36.3199C45.7734 36.0637 45.7323 35.8076 45.7065 35.5172C46.6207 35.0333 47.5196 34.5836 48.4185 34.134C48.3246 34.1077 48.2536 34.1354 48.1814 34.1594C47.5159 34.3811 46.8519 34.6077 46.182 34.8155C46.1066 34.839 45.9978 34.7552 45.9133 34.7029C45.9939 34.6041 46.0658 34.5235 46.1376 34.4428Z" fill="#FBAF97"/>
<path d="M31.5703 29.3316C31.8427 29.1735 32.1292 29.035 32.4125 28.8902C33.1321 28.5225 33.8576 28.1653 34.567 27.7789C35.449 27.2985 36.1745 26.614 36.9098 25.9409C37.4062 25.4866 37.9144 25.0321 38.5834 24.8363C38.7586 24.7849 38.9466 24.7769 39.1558 24.7485C39.1425 24.8189 39.1021 24.8898 39.0618 24.9814C39.0619 25.0021 39.062 24.9991 39.0502 25.0044C39.0214 25.021 39.0114 25.0367 39.0082 25.0568C38.4292 25.4159 37.7693 25.6897 37.286 26.1494C35.5806 27.7715 33.5936 28.9237 31.45 29.8322C30.679 30.1589 29.8992 30.5092 29.088 30.688C27.1486 31.1155 25.3609 31.9508 23.5097 32.6159C22.0463 33.1417 20.5742 33.6441 19.0976 34.1315C18.8002 34.2296 18.4657 34.2226 18.147 34.2475C17.5385 34.2949 16.92 34.2793 16.323 34.3866C15.8314 34.4749 15.3591 34.6881 14.8885 34.8722C14.0587 35.1969 13.2366 35.5416 12.3862 35.8811C12.1685 35.6723 12.3359 35.5635 12.4948 35.4846C13.3515 35.0593 14.2199 34.6568 15.0711 34.2208C15.881 33.8059 16.7638 33.7211 17.6391 33.6442C19.0978 33.516 20.4586 33.0462 21.8207 32.563C23.6713 31.9064 25.5088 31.2075 27.3808 30.6187C28.2973 30.3305 29.259 30.1798 30.1782 29.7994C30.7222 29.9175 31.1587 29.6549 31.6142 29.4855C31.62 29.4833 31.5941 29.3959 31.5703 29.3316Z" fill="#ECA178"/>
<path d="M15.0034 39.8209C15.0337 39.6829 15.081 39.5641 15.1344 39.4253C17.0534 39.567 18.9697 39.5743 20.881 39.4281C23.2363 39.2479 25.5885 39.022 27.9389 38.7837C28.4076 38.7362 28.8617 38.5439 29.347 38.4121C28.8976 38.6243 28.4429 38.9228 27.9452 39.043C27.1451 39.2362 26.3184 39.3257 25.4995 39.4332C24.4447 39.5716 23.3869 39.6883 22.3296 39.8066C21.857 39.8595 21.3829 39.9029 20.9084 39.9331C20.3911 39.966 19.8726 39.9817 19.3544 39.9995C18.6699 40.023 17.984 40.0751 17.3008 40.0526C16.558 40.0282 15.8175 39.9325 15.076 39.8667C15.0569 39.865 15.0389 39.8493 15.0034 39.8209Z" fill="#876253"/>
<path d="M45.8042 36.339C46.525 36.194 47.2357 36.0678 47.9733 35.9365C48.0104 35.9345 48.0205 35.9378 48.0463 35.9739C47.9975 36.6589 48.1103 37.2814 48.3751 37.8785C47.8633 37.7727 47.3538 37.653 46.839 37.5651C46.3246 37.4772 45.8048 37.4209 45.2695 37.3333C45.4324 36.9964 45.6132 36.6771 45.8042 36.339Z" fill="#7F5A4B"/>
<path d="M46.1149 34.4335C46.0657 34.5238 45.9938 34.6044 45.8938 34.7089C45.7006 34.8493 45.5354 34.9658 45.3703 35.0823C45.3605 35.0793 45.3487 35.0788 45.341 35.0729C44.8354 34.6884 44.2773 34.5914 43.6511 34.6921C43.3556 34.7396 43.0399 34.6617 42.7109 34.631C42.9029 34.5684 43.1153 34.4815 43.3321 34.4685C43.9882 34.4288 44.6185 34.3178 45.0866 33.9741C45.2569 34.0878 45.3573 34.1806 45.4759 34.2284C45.6753 34.3086 45.8862 34.3602 46.1149 34.4335Z" fill="#986B59"/>
<path d="M45.375 35.1018C45.5355 34.9657 45.7006 34.8492 45.8851 34.727C45.9978 34.7554 46.1065 34.8392 46.182 34.8158C46.8518 34.6079 47.5158 34.3813 48.1814 34.1596C48.2535 34.1356 48.3245 34.1079 48.4185 34.1342C47.5196 34.5838 46.6207 35.0335 45.7017 35.4934C45.581 35.3762 45.4803 35.2487 45.375 35.1018Z" fill="#ECA178"/>
<path d="M14.5835 36.5073C15.1157 36.38 15.6649 36.2649 16.2301 36.1665C15.6976 36.2953 15.149 36.4074 14.5835 36.5073Z" fill="#ECA178"/>
<path d="M49.3105 35.8906C49.7561 35.8951 50.2017 35.8996 50.6695 35.9173C50.695 36.3753 50.6943 36.8204 50.7037 37.2652C50.7074 37.4398 50.7406 37.6137 50.7488 37.7884C50.764 38.1166 50.7708 38.4452 50.7821 38.804C50.4744 38.6839 50.1259 38.5478 49.7635 38.3709C49.7294 38.2735 49.7263 38.1924 49.6861 38.1642C49.3843 37.9522 49.3424 37.6518 49.3727 37.3191C49.3781 37.2597 49.351 37.198 49.3489 37.137C49.3346 36.7216 49.323 36.3061 49.3105 35.8906Z" fill="#986B59"/>
<path d="M44.8652 44.7731C43.6755 44.728 42.478 44.6673 41.2816 44.59C38.6421 44.4193 36.0379 43.968 33.422 43.6062C32.8096 43.5214 32.1792 43.5661 31.5298 43.5497C31.5454 43.512 31.5855 43.4483 31.6314 43.4438C32.5515 43.3529 33.4687 43.3517 34.3876 43.4873C35.5109 43.653 36.639 43.7857 37.7639 43.94C38.766 44.0774 39.7645 44.2427 40.7685 44.3628C41.6917 44.4732 42.6201 44.5394 43.5461 44.6257C43.9835 44.6664 44.4207 44.7085 44.8652 44.7731Z" fill="#876253"/>
<path d="M49.2814 35.8862C49.3227 36.3058 49.3343 36.7213 49.3486 37.1367C49.3507 37.1977 49.3777 37.2593 49.3723 37.3187C49.3421 37.6515 49.3839 37.9519 49.6857 38.1639C49.7259 38.1921 49.729 38.2731 49.7495 38.3528C49.3005 38.2215 48.8512 38.067 48.3884 37.8954C48.1101 37.281 47.9974 36.6585 48.0614 35.9782C48.4583 35.9273 48.8555 35.9048 49.2814 35.8862Z" fill="#876253"/>
<path d="M39.021 25.0508C39.0116 25.0368 39.0217 25.0211 39.052 25.0044C39.0588 25.017 39.0482 25.0323 39.021 25.0508Z" fill="#A27563"/>
</g>
<defs>
<clipPath id="clip0_946_17483">
<rect width="64" height="64" rx="32" fill="white"/>
</clipPath>
</defs>
</svg>
