<svg width="47" height="32" viewBox="0 0 47 32" fill="none" xmlns="http://www.w3.org/2000/svg">
<rect x="0.5" y="0.5" width="45.6667" height="31" rx="3.5" fill="#120F0D" stroke="#44403B"/>
<path fill-rule="evenodd" clip-rule="evenodd" d="M14.167 21.6756H11.3399L9.21994 13.5878C9.11932 13.2157 8.90566 12.8868 8.59139 12.7318C7.80708 12.3422 6.94282 12.0322 6 11.8758V11.5645H10.5542C11.1828 11.5645 11.6542 12.0322 11.7328 12.5754L12.8327 18.4095L15.6584 11.5645H18.407L14.167 21.6756ZM19.9786 21.6756H17.3086L19.5071 11.5645H22.1771L19.9786 21.6756ZM25.6308 14.3663C25.7093 13.8217 26.1807 13.5104 26.7307 13.5104C27.595 13.4322 28.5364 13.5885 29.3221 13.9768L29.7935 11.7998C29.0078 11.4884 28.1436 11.332 27.3593 11.332C24.7679 11.332 22.8822 12.7326 22.8822 14.6763C22.8822 16.1551 24.2179 16.9315 25.1607 17.3993C26.1807 17.8657 26.5736 18.177 26.495 18.6434C26.495 19.343 25.7093 19.6544 24.925 19.6544C23.9822 19.6544 23.0394 19.4212 22.1765 19.0316L21.7051 21.21C22.6479 21.5982 23.6679 21.7546 24.6107 21.7546C27.5164 21.8314 29.3221 20.4322 29.3221 18.332C29.3221 15.6873 25.6308 15.5323 25.6308 14.3663ZM38.6669 21.6756L36.5469 11.5645H34.2698C33.7984 11.5645 33.327 11.8758 33.1698 12.3422L29.2441 21.6756H31.9927L32.5413 20.1982H35.9183L36.2326 21.6756H38.6669ZM34.6623 14.2871L35.4466 18.0978H33.248L34.6623 14.2871Z" fill="#172B85"/>
</svg>
