<svg width="44" height="44" viewBox="0 0 44 44" fill="none" xmlns="http://www.w3.org/2000/svg">
<rect width="44" height="44" rx="8" fill="#281A12"/>
<mask id="mask0_1748_27222" style="mask-type:alpha" maskUnits="userSpaceOnUse" x="10" y="10" width="24" height="24">
<rect x="10" y="10" width="24" height="24" fill="#D9D9D9"/>
</mask>
<g mask="url(#mask0_1748_27222)">
<path d="M16 32C15.1667 32 14.4583 31.7083 13.875 31.125C13.2917 30.5417 13 29.8333 13 29V26H16V12L17.5 13.5L19 12L20.5 13.5L22 12L23.5 13.5L25 12L26.5 13.5L28 12L29.5 13.5L31 12V29C31 29.8333 30.7083 30.5417 30.125 31.125C29.5417 31.7083 28.8333 32 28 32H16ZM28 30C28.2833 30 28.5208 29.9042 28.7125 29.7125C28.9042 29.5208 29 29.2833 29 29V15H18V26H27V29C27 29.2833 27.0958 29.5208 27.2875 29.7125C27.4792 29.9042 27.7167 30 28 30ZM19 19V17H25V19H19ZM19 22V20H25V22H19ZM27 19C26.7167 19 26.4792 18.9042 26.2875 18.7125C26.0958 18.5208 26 18.2833 26 18C26 17.7167 26.0958 17.4792 26.2875 17.2875C26.4792 17.0958 26.7167 17 27 17C27.2833 17 27.5208 17.0958 27.7125 17.2875C27.9042 17.4792 28 17.7167 28 18C28 18.2833 27.9042 18.5208 27.7125 18.7125C27.5208 18.9042 27.2833 19 27 19ZM27 22C26.7167 22 26.4792 21.9042 26.2875 21.7125C26.0958 21.5208 26 21.2833 26 21C26 20.7167 26.0958 20.4792 26.2875 20.2875C26.4792 20.0958 26.7167 20 27 20C27.2833 20 27.5208 20.0958 27.7125 20.2875C27.9042 20.4792 28 20.7167 28 21C28 21.2833 27.9042 21.5208 27.7125 21.7125C27.5208 21.9042 27.2833 22 27 22ZM16 30H25V28H15V29C15 29.2833 15.0958 29.5208 15.2875 29.7125C15.4792 29.9042 15.7167 30 16 30Z" fill="#9A7E6D"/>
</g>
</svg>
