<svg width="44" height="44" viewBox="0 0 44 44" fill="none" xmlns="http://www.w3.org/2000/svg">
<rect width="44" height="44" rx="8" fill="#FFF2EB"/>
<mask id="mask0_1748_29847" style="mask-type:alpha" maskUnits="userSpaceOnUse" x="10" y="10" width="24" height="24">
<rect x="10" y="10" width="24" height="24" fill="#D9D9D9"/>
</mask>
<g mask="url(#mask0_1748_29847)">
<path d="M14 27V29H30V27H14ZM14 16H16.2C16.1167 15.85 16.0625 15.6917 16.0375 15.525C16.0125 15.3583 16 15.1833 16 15C16 14.1667 16.2917 13.4583 16.875 12.875C17.4583 12.2917 18.1667 12 19 12C19.5 12 19.9625 12.1292 20.3875 12.3875C20.8125 12.6458 21.1833 12.9667 21.5 13.35L22 14L22.5 13.35C22.8 12.95 23.1667 12.625 23.6 12.375C24.0333 12.125 24.5 12 25 12C25.8333 12 26.5417 12.2917 27.125 12.875C27.7083 13.4583 28 14.1667 28 15C28 15.1833 27.9875 15.3583 27.9625 15.525C27.9375 15.6917 27.8833 15.85 27.8 16H30C30.55 16 31.0208 16.1958 31.4125 16.5875C31.8042 16.9792 32 17.45 32 18V29C32 29.55 31.8042 30.0208 31.4125 30.4125C31.0208 30.8042 30.55 31 30 31H14C13.45 31 12.9792 30.8042 12.5875 30.4125C12.1958 30.0208 12 29.55 12 29V18C12 17.45 12.1958 16.9792 12.5875 16.5875C12.9792 16.1958 13.45 16 14 16ZM14 24H30V18H24.9L27 20.85L25.4 22L22 17.4L18.6 22L17 20.85L19.05 18H14V24ZM19 16C19.2833 16 19.5208 15.9042 19.7125 15.7125C19.9042 15.5208 20 15.2833 20 15C20 14.7167 19.9042 14.4792 19.7125 14.2875C19.5208 14.0958 19.2833 14 19 14C18.7167 14 18.4792 14.0958 18.2875 14.2875C18.0958 14.4792 18 14.7167 18 15C18 15.2833 18.0958 15.5208 18.2875 15.7125C18.4792 15.9042 18.7167 16 19 16ZM25 16C25.2833 16 25.5208 15.9042 25.7125 15.7125C25.9042 15.5208 26 15.2833 26 15C26 14.7167 25.9042 14.4792 25.7125 14.2875C25.5208 14.0958 25.2833 14 25 14C24.7167 14 24.4792 14.0958 24.2875 14.2875C24.0958 14.4792 24 14.7167 24 15C24 15.2833 24.0958 15.5208 24.2875 15.7125C24.4792 15.9042 24.7167 16 25 16Z" fill="#80604D"/>
</g>
</svg>
